# File generated by ImageToStl.com - Free Image and 3D model conversion tools

o obj1
v -1.65079832 0 -29.91377068
v 1.65079832 0 -29.91377068
v -1.65079832 0 -24.91377068
v 1.65079832 0 -24.91377068
v -6.1064043 0 -24.21018219
v 6.1064043 0 -24.21018219
v -10.36270714 0 -22.71641159
v 10.36270714 0 -22.71641159
v -2.11229157 0 -22.12092018
v -14.28078747 0 -20.48121452
v -6.26053143 0 -21.32141113
v -17.73276711 0 -17.57754326
v -10.18249893 0 -19.75129318
v -20.6059761 0 -14.10017014
v -13.73644447 0 -17.46730995
v -22.80664062 0 -10.16259003
v -16.79391861 0 -14.55201435
v -24.26293182 0 -5.89331865
v -19.2444191 0 -11.11077023
v -24.92732048 0 -1.43169916
v -20.99937439 0 -7.26795387
v -24.77812195 -0 3.07664871
v -21.99535751 0 -3.16245484
v -23.82020378 -0 7.48458004
v -22.19637108 -0 1.05734348
v -22.08483315 -0 11.64822578
v -21.59514999 -0 5.23892689
v -19.62865067 -0 15.43169308
v -20.21342468 -0 9.23116112
v -16.53181839 -0 18.71149445
v -18.10113144 -0 12.88975811
v -12.89541531 -0 21.38058281
v -15.33461857 -0 16.0824852
v -8.83812618 -0 23.35184288
v -12.01387119 -0 18.69394875
v -4.4923749 -0 24.56093788
v -8.25891209 -0 20.62976456
v -0 -0 24.96840096
v -4.20545435 -0 21.81996727
v 4.4923749 -0 24.56093788
v -0 -0 22.22154045
v 8.83812618 -0 23.35184288
v 4.20545435 -0 21.81996727
v 12.89541531 -0 21.38058281
v 8.25891209 -0 20.62976456
v 16.53181839 -0 18.71149445
v 12.01387119 -0 18.69394875
v 19.62865067 -0 15.43169308
v 15.33461857 -0 16.0824852
v 22.08483315 -0 11.64822578
v 18.10113144 -0 12.88975811
v 23.82020378 -0 7.48458004
v 20.21342468 -0 9.23116112
v 24.77812195 -0 3.07664871
v 21.59514999 -0 5.23892689
v 24.92732048 0 -1.43169916
v 22.19637108 -0 1.05734348
v 24.26293182 0 -5.89331865
v 21.99535751 0 -3.16245484
v 22.80664062 0 -10.16259003
v 20.99937439 0 -7.26795387
v 20.6059761 0 -14.10017014
v 19.2444191 0 -11.11077023
v 17.73276711 0 -17.57754326
v 16.79391861 0 -14.55201435
v 14.28078747 0 -20.48121452
v 13.73644447 0 -17.46730995
v 10.18249893 0 -19.75129318
v 2.11229157 0 -22.12092018
v 6.26053143 0 -21.32141113
v 1.65079832 5 -29.91377068
v -1.65079832 5 -29.91377068
v 1.65079832 5 -24.91377068
v -1.65079832 5 -24.91377068
v 6.1064043 5 -24.21018219
v -6.1064043 5 -24.21018219
v 10.36270714 5 -22.71641159
v -10.36270714 5 -22.71641159
v 2.11229157 5 -22.12092018
v 14.28078747 5 -20.48121452
v 6.26053143 5 -21.32141113
v 17.73276711 5 -17.57754326
v 10.18249893 5 -19.75129318
v 20.6059761 5 -14.10017014
v 13.73644447 5 -17.46730995
v 22.80664062 5 -10.16259003
v 16.79391861 5 -14.55201435
v 24.26293182 5 -5.89331865
v 19.2444191 5 -11.11077023
v 24.92732048 5 -1.43169916
v 20.99937439 5 -7.26795387
v 24.77812195 5 3.07664871
v 21.99535751 5 -3.16245484
v 23.82020378 5 7.48458004
v 22.19637108 5 1.05734348
v 22.08483315 5 11.64822578
v 21.59514999 5 5.23892689
v 19.62865067 5 15.43169308
v 20.21342468 5 9.23116112
v 16.53181839 5 18.71149445
v 18.10113144 5 12.88975811
v 12.89541531 5 21.38058281
v 15.33461857 5 16.0824852
v 8.83812618 5 23.35184288
v 12.01387119 5 18.69394875
v 4.4923749 5 24.56093788
v 8.25891209 5 20.62976456
v -0 5 24.96840096
v 4.20545435 5 21.81996727
v -4.4923749 5 24.56093788
v -0 5 22.22154045
v -8.83812618 5 23.35184288
v -4.20545435 5 21.81996727
v -12.89541531 5 21.38058281
v -8.25891209 5 20.62976456
v -16.53181839 5 18.71149445
v -12.01387119 5 18.69394875
v -19.62865067 5 15.43169308
v -15.33461857 5 16.0824852
v -22.08483315 5 11.64822578
v -18.10113144 5 12.88975811
v -23.82020378 5 7.48458004
v -20.21342468 5 9.23116112
v -24.77812195 5 3.07664871
v -21.59514999 5 5.23892689
v -24.92732048 5 -1.43169916
v -22.19637108 5 1.05734348
v -24.26293182 5 -5.89331865
v -21.99535751 5 -3.16245484
v -22.80664062 5 -10.16259003
v -20.99937439 5 -7.26795387
v -20.6059761 5 -14.10017014
v -19.2444191 5 -11.11077023
v -17.73276711 5 -17.57754326
v -16.79391861 5 -14.55201435
v -14.28078747 5 -20.48121452
v -13.73644447 5 -17.46730995
v -10.18249893 5 -19.75129318
v -2.11229157 5 -22.12092018
v -6.26053143 5 -21.32141113
v -0 5 22.22154045
v -0 -0 22.22154045
v -0 -0 24.96840096
v -0 5 24.96840096
vn -0 -1 -0
vn -0 -1 -0
vn -0 -1 -0
vn -0 -1 -0
vn 0 -1 -0
vn -0 -1 -0
vn -0 -1 -0
vn -0 -1 -0
vn 0 -1 -0
vn 0 -1 -0
vn -0 -1 -0
vn 0 -1 -0
vn -0 -1 -0
vn 0 -1 -0
vn -0 -1 -0
vn -0 -1 -0
vn 0 -1 -0
vn 0 -1 -0
vn -0 -1 -0
vn -0 -1 -0
vn 0 -1 -0
vn 0 -1 -0
vn -0 -1 -0
vn -0 -1 -0
vn 0 -1 -0
vn 0 -1 -0
vn -0 -1 -0
vn 0 -1 -0
vn -0 -1 -0
vn 0 -1 -0
vn -0 -1 -0
vn -0 -1 -0
vn -0 -1 -0
vn 0 -1 -0
vn 0 -1 -0
vn -0 -1 -0
vn -0 -1 -0
vn 0 -1 -0
vn 0 -1 -0
vn 0 -1 -0
vn 0 -1 -0
vn 0 -1 -0
vn -0 -1 -0
vn -0 -1 -0
vn -0 -1 -0
vn -0 -1 -0
vn 0 -1 -0
vn 0 -1 -0
vn -0 -1 -0
vn -0 -1 -0
vn 0 -1 -0
vn -0 -1 -0
vn -0 -1 -0
vn -0 -1 -0
vn 0 -1 -0
vn 0 -1 -0
vn -0 -1 -0
vn -0 -1 -0
vn 0 -1 -0
vn 0 -1 -0
vn 0 -1 -0
vn 0 -1 -0
vn 0 -1 -0
vn 0 -1 -0
vn 0 -1 -0
vn -0 -1 -0
vn 0 1 0
vn -0.09506 0 -0.99547
vn -0.28173 0 -0.95949
vn -0.45823 0 -0.88884
vn -0.61816 0 -0.78605
vn -0.75575 0 -0.65486
vn -0.86603 0 -0.5
vn -0.945 0 -0.32707
vn -0.98982 0 -0.14231
vn -0.99887 0 0.04758
vn -0.97181 0 0.23576
vn -0.90963 0 0.41541
vn -0.81458 0 0.58006
vn -0.69008 0 0.72373
vn -0.54064 0 0.84125
vn -0.37166 0 0.92837
vn -0.18925 0 0.98193
vn 0 0 1
vn 0.18925 -0 0.98193
vn 0.37166 -0 0.92837
vn 0.54064 -0 0.84125
vn 0.69008 -0 0.72373
vn 0.81458 -0 0.58006
vn 0.90963 -0 0.41541
vn 0.97181 -0 0.23576
vn 0.99887 -0 0.04758
vn 0.98982 0 -0.14231
vn 0.945 0 -0.32707
vn 0.86603 0 -0.5
vn 0.75575 0 -0.65486
vn 0.61816 0 -0.78605
vn 0.45823 0 -0.88884
vn 0.28173 0 -0.95949
vn 0.09506 0 -0.99547
vn 1 -0 0
vn -0.15598 0 -0.98776
vn -0.33115 0 -0.94358
vn -0.49552 0 -0.8686
vn -0.64371 0 -0.76527
vn -0.7709 0 -0.63696
vn -0.87292 0 -0.48786
vn -0.94645 0 -0.32284
vn -0.98909 0 -0.14729
vn -0.99945 0 0.03308
vn -0.97719 0 0.21236
vn -0.92304 0 0.38471
vn -0.83875 0 0.54451
vn -0.7271 0 0.68653
vn -0.59171 0 0.80615
vn -0.43701 0 0.89946
vn -0.26804 0 0.96341
vn -0.09033 0 0.99591
vn 0.09033 -0 0.99591
vn 0.26804 -0 0.96341
vn 0.43701 -0 0.89946
vn 0.59171 -0 0.80615
vn 0.7271 -0 0.68653
vn 0.83875 -0 0.54451
vn 0.92304 -0 0.38471
vn 0.97719 -0 0.21236
vn 0.99945 -0 0.03308
vn 0.98909 0 -0.14729
vn 0.94645 0 -0.32284
vn 0.87292 0 -0.48786
vn 0.7709 0 -0.63696
vn 0.64371 0 -0.76527
vn 0.49552 0 -0.8686
vn 0.33115 0 -0.94358
vn 0.15598 0 -0.98776
vn -1 0 0
vn 0 0 -1
f 1//1 2//1 3//1
f 2//1 4//1 3//1
f 3//2 4//2 5//2
f 4//2 6//2 5//2
f 5//3 6//3 7//3
f 6//3 8//3 7//3
f 7//4 9//4 10//4
f 9//5 11//5 10//5
f 10//6 11//6 12//6
f 11//7 13//7 12//7
f 12//8 13//8 14//8
f 13//9 15//9 14//9
f 14//10 15//10 16//10
f 15//11 17//11 16//11
f 16//12 17//12 18//12
f 17//13 19//13 18//13
f 18//14 19//14 20//14
f 19//15 21//15 20//15
f 20//16 21//16 22//16
f 21//17 23//17 22//17
f 22//18 23//18 24//18
f 23//19 25//19 24//19
f 24//20 25//20 26//20
f 25//21 27//21 26//21
f 26//22 27//22 28//22
f 27//23 29//23 28//23
f 28//24 29//24 30//24
f 29//25 31//25 30//25
f 30//26 31//26 32//26
f 31//27 33//27 32//27
f 32//28 33//28 34//28
f 33//29 35//29 34//29
f 34//30 35//30 36//30
f 35//31 37//31 36//31
f 36//32 37//32 38//32
f 37//33 39//33 38//33
f 38//34 39//34 40//34
f 39//35 41//35 40//35
f 40//36 41//36 42//36
f 41//37 43//37 42//37
f 42//38 43//38 44//38
f 43//39 45//39 44//39
f 44//40 45//40 46//40
f 45//41 47//41 46//41
f 46//42 47//42 48//42
f 47//43 49//43 48//43
f 48//44 49//44 50//44
f 49//45 51//45 50//45
f 50//46 51//46 52//46
f 51//47 53//47 52//47
f 52//48 53//48 54//48
f 53//49 55//49 54//49
f 54//50 55//50 56//50
f 55//51 57//51 56//51
f 56//52 57//52 58//52
f 57//53 59//53 58//53
f 58//54 59//54 60//54
f 59//55 61//55 60//55
f 60//56 61//56 62//56
f 61//57 63//57 62//57
f 62//58 63//58 64//58
f 63//59 65//59 64//59
f 64//60 65//60 66//60
f 65//61 67//61 66//61
f 66//62 67//62 8//62
f 67//63 68//63 8//63
f 8//64 69//64 7//64
f 69//64 9//64 7//64
f 69//65 8//65 70//65
f 8//66 68//66 70//66
f 71//67 72//67 73//67
f 72//67 74//67 73//67
f 73//67 74//67 75//67
f 74//67 76//67 75//67
f 75//67 76//67 77//67
f 76//67 78//67 77//67
f 77//67 79//67 80//67
f 79//67 81//67 80//67
f 80//67 81//67 82//67
f 81//67 83//67 82//67
f 82//67 83//67 84//67
f 83//67 85//67 84//67
f 84//67 85//67 86//67
f 85//67 87//67 86//67
f 86//67 87//67 88//67
f 87//67 89//67 88//67
f 88//67 89//67 90//67
f 89//67 91//67 90//67
f 90//67 91//67 92//67
f 91//67 93//67 92//67
f 92//67 93//67 94//67
f 93//67 95//67 94//67
f 94//67 95//67 96//67
f 95//67 97//67 96//67
f 96//67 97//67 98//67
f 97//67 99//67 98//67
f 98//67 99//67 100//67
f 99//67 101//67 100//67
f 100//67 101//67 102//67
f 101//67 103//67 102//67
f 102//67 103//67 104//67
f 103//67 105//67 104//67
f 104//67 105//67 106//67
f 105//67 107//67 106//67
f 106//67 107//67 108//67
f 107//67 109//67 108//67
f 108//67 109//67 110//67
f 109//67 111//67 110//67
f 110//67 111//67 112//67
f 111//67 113//67 112//67
f 112//67 113//67 114//67
f 113//67 115//67 114//67
f 114//67 115//67 116//67
f 115//67 117//67 116//67
f 116//67 117//67 118//67
f 117//67 119//67 118//67
f 118//67 119//67 120//67
f 119//67 121//67 120//67
f 120//67 121//67 122//67
f 121//67 123//67 122//67
f 122//67 123//67 124//67
f 123//67 125//67 124//67
f 124//67 125//67 126//67
f 125//67 127//67 126//67
f 126//67 127//67 128//67
f 127//67 129//67 128//67
f 128//67 129//67 130//67
f 129//67 131//67 130//67
f 130//67 131//67 132//67
f 131//67 133//67 132//67
f 132//67 133//67 134//67
f 133//67 135//67 134//67
f 134//67 135//67 136//67
f 135//67 137//67 136//67
f 136//67 137//67 78//67
f 137//67 138//67 78//67
f 78//67 139//67 77//67
f 139//67 79//67 77//67
f 139//67 78//67 140//67
f 78//67 138//67 140//67
f 109//68 43//68 41//68
f 111//68 109//68 41//68
f 107//69 45//69 43//69
f 109//69 107//69 43//69
f 105//70 47//70 45//70
f 107//70 105//70 45//70
f 103//71 49//71 47//71
f 105//71 103//71 47//71
f 101//72 51//72 49//72
f 103//72 101//72 49//72
f 99//73 53//73 51//73
f 101//73 99//73 51//73
f 97//74 55//74 53//74
f 99//74 97//74 53//74
f 95//75 57//75 55//75
f 97//75 95//75 55//75
f 93//76 59//76 57//76
f 95//76 93//76 57//76
f 91//77 61//77 59//77
f 93//77 91//77 59//77
f 89//78 63//78 61//78
f 91//78 89//78 61//78
f 87//79 65//79 63//79
f 89//79 87//79 63//79
f 85//80 67//80 65//80
f 87//80 85//80 65//80
f 83//81 68//81 67//81
f 85//81 83//81 67//81
f 81//82 70//82 68//82
f 83//82 81//82 68//82
f 79//83 69//83 70//83
f 81//83 79//83 70//83
f 139//84 9//84 69//84
f 79//84 139//84 69//84
f 140//85 11//85 9//85
f 139//85 140//85 9//85
f 138//86 13//86 11//86
f 140//86 138//86 11//86
f 137//87 15//87 13//87
f 138//87 137//87 13//87
f 135//88 17//88 15//88
f 137//88 135//88 15//88
f 133//89 19//89 17//89
f 135//89 133//89 17//89
f 131//90 21//90 19//90
f 133//90 131//90 19//90
f 129//91 23//91 21//91
f 131//91 129//91 21//91
f 127//92 25//92 23//92
f 129//92 127//92 23//92
f 125//93 27//93 25//93
f 127//93 125//93 25//93
f 123//94 29//94 27//94
f 125//94 123//94 27//94
f 121//95 31//95 29//95
f 123//95 121//95 29//95
f 119//96 33//96 31//96
f 121//96 119//96 31//96
f 117//97 35//97 33//97
f 119//97 117//97 33//97
f 115//98 37//98 35//98
f 117//98 115//98 35//98
f 113//99 39//99 37//99
f 115//99 113//99 37//99
f 141//100 142//100 39//100
f 113//100 141//100 39//100
f 73//101 4//101 2//101
f 73//101 2//101 71//101
f 3//102 5//102 76//102
f 3//102 76//102 74//102
f 5//103 7//103 78//103
f 5//103 78//103 76//103
f 7//104 10//104 136//104
f 7//104 136//104 78//104
f 10//105 12//105 134//105
f 10//105 134//105 136//105
f 12//106 14//106 132//106
f 12//106 132//106 134//106
f 14//107 16//107 130//107
f 14//107 130//107 132//107
f 16//108 18//108 128//108
f 16//108 128//108 130//108
f 18//109 20//109 126//109
f 18//109 126//109 128//109
f 20//110 22//110 124//110
f 20//110 124//110 126//110
f 22//111 24//111 122//111
f 22//111 122//111 124//111
f 24//112 26//112 120//112
f 24//112 120//112 122//112
f 26//113 28//113 118//113
f 26//113 118//113 120//113
f 28//114 30//114 116//114
f 28//114 116//114 118//114
f 30//115 32//115 114//115
f 30//115 114//115 116//115
f 32//116 34//116 112//116
f 32//116 112//116 114//116
f 34//117 36//117 110//117
f 34//117 110//117 112//117
f 36//118 143//118 144//118
f 36//118 144//118 110//118
f 143//119 40//119 106//119
f 143//119 106//119 144//119
f 40//120 42//120 104//120
f 40//120 104//120 106//120
f 42//121 44//121 102//121
f 42//121 102//121 104//121
f 44//122 46//122 100//122
f 44//122 100//122 102//122
f 46//123 48//123 98//123
f 46//123 98//123 100//123
f 48//124 50//124 96//124
f 48//124 96//124 98//124
f 50//125 52//125 94//125
f 50//125 94//125 96//125
f 52//126 54//126 92//126
f 52//126 92//126 94//126
f 54//127 56//127 90//127
f 54//127 90//127 92//127
f 56//128 58//128 88//128
f 56//128 88//128 90//128
f 58//129 60//129 86//129
f 58//129 86//129 88//129
f 60//130 62//130 84//130
f 60//130 84//130 86//130
f 62//131 64//131 82//131
f 62//131 82//131 84//131
f 64//132 66//132 80//132
f 64//132 80//132 82//132
f 66//133 8//133 77//133
f 66//133 77//133 80//133
f 8//134 6//134 75//134
f 8//134 75//134 77//134
f 6//135 4//135 73//135
f 6//135 73//135 75//135
f 72//136 1//136 3//136
f 72//136 3//136 74//136
f 71//137 2//137 1//137
f 71//137 1//137 72//137
# Vertices: 144, normals: 137, texture coordinates: 0, faces: 280

